<svg xmlns="http://www.w3.org/2000/svg" xmlns:xlink="http://www.w3.org/1999/xlink" width="500" zoomAndPan="magnify" viewBox="0 0 375 374.999991" height="500" preserveAspectRatio="xMidYMid meet" version="1.0"><defs><clipPath id="aeced32c82"><path d="M 1 2 L 373 2 L 373 373.921875 L 1 373.921875 Z M 1 2 " clip-rule="nonzero"/></clipPath></defs><g clip-path="url(#aeced32c82)"><path fill="#1ed660" d="M 187.25 373.167969 C 86.484375 373.921875 0.542969 291.226562 1.800781 185.410156 C 3.054688 84.117188 86.230469 1.171875 190.011719 2.679688 C 292.789062 4.1875 374.457031 89.394531 372.195312 191.695312 C 370.4375 291.980469 288.265625 373.671875 187.25 373.167969 Z M 162.371094 100.707031 C 145.03125 100.707031 129.703125 101.710938 114.628906 103.472656 C 100.050781 105.230469 85.730469 107.996094 71.65625 112.269531 C 63.867188 114.78125 58.339844 122.574219 59.34375 129.863281 C 60.851562 141.925781 70.902344 148.460938 82.714844 144.941406 C 95.53125 141.171875 108.34375 138.660156 121.664062 137.152344 C 140.257812 134.890625 158.851562 134.386719 177.449219 135.390625 C 194.535156 136.144531 211.625 138.15625 228.460938 141.675781 C 252.835938 146.703125 276.203125 154.496094 297.8125 167.0625 C 304.597656 171.082031 313.394531 169.324219 318.671875 163.292969 C 325.957031 155.25 324.199219 142.679688 314.652344 136.898438 C 301.082031 128.605469 286.507812 122.320312 271.179688 117.296875 C 234.992188 105.734375 197.800781 100.957031 162.371094 100.707031 Z M 155.585938 193.453125 C 168.402344 193.453125 180.964844 194.457031 193.53125 196.21875 C 222.429688 200.492188 249.820312 209.039062 274.949219 224.117188 C 277.460938 225.625 280.222656 226.378906 283.238281 226.128906 C 289.773438 225.625 294.800781 221.351562 296.304688 215.070312 C 297.8125 208.785156 295.300781 202.753906 289.523438 199.234375 C 275.449219 190.6875 260.371094 183.902344 244.542969 178.625 C 211.121094 167.566406 176.945312 163.039062 141.765625 164.800781 C 121.664062 165.804688 101.8125 169.074219 82.460938 174.855469 C 74.421875 177.367188 70.148438 185.160156 72.410156 192.949219 C 74.671875 200.492188 82.714844 204.765625 90.503906 202.503906 C 111.863281 196.21875 133.472656 193.453125 155.585938 193.453125 Z M 158.351562 225.125 C 153.074219 225.125 148.046875 225.375 142.769531 225.625 C 124.425781 226.632812 106.335938 229.394531 88.242188 233.667969 C 84.472656 234.421875 81.707031 236.9375 80.199219 240.457031 C 78.441406 244.730469 78.945312 248.75 81.960938 252.019531 C 85.226562 256.039062 89.5 256.792969 94.523438 255.789062 C 118.144531 250.507812 141.765625 247.492188 165.890625 248.246094 C 177.949219 248.75 190.011719 250.007812 201.824219 252.519531 C 220.921875 256.542969 239.011719 263.578125 255.851562 273.632812 C 261.628906 277.152344 268.414062 275.394531 271.679688 269.863281 C 275.199219 264.332031 273.441406 257.546875 267.410156 253.777344 C 262.382812 250.761719 257.105469 247.746094 251.578125 245.230469 C 222.175781 230.90625 191.019531 225.125 158.351562 225.125 Z M 158.351562 225.125 " fill-opacity="1" fill-rule="nonzero"/></g><path fill="#020202" d="M 162.371094 100.707031 C 197.800781 100.957031 234.992188 105.734375 270.925781 117.796875 C 286.003906 122.824219 300.578125 129.109375 314.398438 137.402344 C 323.949219 143.183594 325.707031 155.5 318.417969 163.792969 C 313.144531 169.574219 304.597656 171.335938 297.5625 167.566406 C 275.953125 154.996094 252.582031 147.207031 228.207031 142.179688 C 211.371094 138.660156 194.285156 136.898438 177.199219 135.894531 C 158.601562 134.890625 140.007812 135.390625 121.410156 137.652344 C 108.34375 139.164062 95.277344 141.425781 82.460938 145.445312 C 70.902344 148.964844 60.601562 142.429688 59.09375 130.363281 C 58.089844 123.074219 63.617188 115.03125 71.40625 112.769531 C 85.476562 108.496094 99.800781 105.734375 114.375 103.972656 C 129.703125 101.710938 144.78125 100.707031 162.371094 100.707031 Z M 162.371094 100.707031 " fill-opacity="1" fill-rule="nonzero"/><path fill="#020202" d="M 155.585938 193.453125 C 133.472656 193.453125 111.863281 196.21875 90.503906 202.503906 C 82.714844 204.765625 74.671875 200.742188 72.410156 192.949219 C 70.148438 185.160156 74.421875 177.367188 82.460938 174.855469 C 101.8125 169.074219 121.664062 165.804688 141.765625 164.800781 C 176.945312 163.039062 211.121094 167.566406 244.542969 178.625 C 260.371094 183.902344 275.199219 190.6875 289.523438 199.234375 C 295.300781 202.753906 297.8125 208.785156 296.304688 215.070312 C 294.800781 221.101562 289.773438 225.375 283.238281 226.128906 C 280.222656 226.378906 277.460938 225.625 274.949219 224.117188 C 249.820312 209.039062 222.429688 200.492188 193.53125 196.21875 C 180.964844 194.457031 168.402344 193.453125 155.585938 193.453125 Z M 155.585938 193.453125 " fill-opacity="1" fill-rule="nonzero"/><path fill="#020202" d="M 158.351562 225.125 C 191.019531 225.125 222.175781 231.15625 251.828125 245.230469 C 257.355469 247.746094 262.632812 250.761719 267.660156 253.777344 C 273.691406 257.296875 275.449219 264.082031 271.933594 269.863281 C 268.664062 275.394531 261.878906 277.152344 256.101562 273.632812 C 239.265625 263.578125 221.421875 256.542969 202.074219 252.519531 C 190.265625 250.007812 178.203125 248.75 166.140625 248.246094 C 142.015625 247.492188 118.144531 250.507812 94.777344 255.789062 C 89.75 256.792969 85.476562 256.039062 82.210938 252.019531 C 79.195312 248.5 78.695312 244.476562 80.453125 240.457031 C 81.960938 236.9375 84.722656 234.675781 88.492188 233.667969 C 106.335938 229.648438 124.425781 226.632812 143.023438 225.625 C 148.046875 225.125 153.074219 224.871094 158.351562 225.125 Z M 158.351562 225.125 " fill-opacity="1" fill-rule="nonzero"/></svg>