<svg xmlns="http://www.w3.org/2000/svg" xmlns:xlink="http://www.w3.org/1999/xlink" width="500" zoomAndPan="magnify" viewBox="0 0 375 374.999991" height="500" preserveAspectRatio="xMidYMid meet" version="1.0"><path fill="#010101" d="M 37.5 0 L 337.5 0 C 358.210938 0 375 16.789062 375 37.5 L 375 337.5 C 375 358.210938 358.210938 375 337.5 375 L 37.5 375 C 16.789062 375 0 358.210938 0 337.5 L 0 37.5 C 0 16.789062 16.789062 0 37.5 0 Z M 37.5 0 " fill-opacity="1" fill-rule="evenodd"/><path fill="#ee1d51" d="M 235.46875 345 C 246.878906 345 256.132812 335.824219 256.132812 324.507812 C 256.132812 313.191406 246.878906 304.011719 235.46875 304.011719 L 232.359375 304.011719 C 243.769531 304.011719 253.019531 313.191406 253.019531 324.507812 C 253.019531 335.824219 243.769531 345 232.359375 345 Z M 235.46875 345 " fill-opacity="1" fill-rule="evenodd"/><path fill="#66c8cf" d="M 232.074219 304.011719 L 228.964844 304.011719 C 217.550781 304.011719 208.300781 313.191406 208.300781 324.507812 C 208.300781 335.824219 217.550781 345 228.964844 345 L 232.074219 345 C 220.664062 345 211.414062 335.824219 211.414062 324.507812 C 211.414062 313.191406 220.664062 304.011719 232.074219 304.011719 Z M 232.074219 304.011719 " fill-opacity="1" fill-rule="evenodd"/><path fill="#010101" d="M 242.265625 324.507812 C 242.265625 325.160156 242.199219 325.808594 242.070312 326.449219 C 241.941406 327.09375 241.753906 327.714844 241.5 328.320312 C 241.246094 328.925781 240.9375 329.5 240.570312 330.042969 C 240.203125 330.585938 239.789062 331.089844 239.320312 331.554688 C 238.855469 332.015625 238.347656 332.429688 237.800781 332.792969 C 237.25 333.15625 236.671875 333.460938 236.0625 333.714844 C 235.453125 333.964844 234.824219 334.152344 234.175781 334.28125 C 233.53125 334.40625 232.875 334.472656 232.214844 334.472656 C 231.558594 334.472656 230.902344 334.40625 230.257812 334.28125 C 229.609375 334.152344 228.980469 333.964844 228.371094 333.714844 C 227.761719 333.460938 227.183594 333.15625 226.632812 332.792969 C 226.085938 332.429688 225.578125 332.015625 225.109375 331.554688 C 224.644531 331.089844 224.226562 330.585938 223.863281 330.042969 C 223.496094 329.5 223.183594 328.925781 222.933594 328.320312 C 222.679688 327.714844 222.488281 327.09375 222.359375 326.449219 C 222.230469 325.808594 222.167969 325.160156 222.167969 324.507812 C 222.167969 323.851562 222.230469 323.203125 222.359375 322.5625 C 222.488281 321.921875 222.679688 321.296875 222.933594 320.695312 C 223.183594 320.089844 223.496094 319.515625 223.863281 318.972656 C 224.226562 318.425781 224.644531 317.921875 225.109375 317.460938 C 225.578125 317 226.085938 316.585938 226.632812 316.222656 C 227.183594 315.859375 227.761719 315.550781 228.371094 315.300781 C 228.980469 315.050781 229.609375 314.863281 230.257812 314.734375 C 230.902344 314.605469 231.558594 314.542969 232.214844 314.542969 C 232.875 314.542969 233.53125 314.605469 234.175781 314.734375 C 234.824219 314.863281 235.453125 315.050781 236.0625 315.300781 C 236.671875 315.550781 237.25 315.859375 237.800781 316.222656 C 238.347656 316.585938 238.855469 317 239.320312 317.460938 C 239.789062 317.921875 240.203125 318.425781 240.570312 318.972656 C 240.9375 319.515625 241.246094 320.089844 241.5 320.695312 C 241.753906 321.296875 241.941406 321.921875 242.070312 322.5625 C 242.199219 323.203125 242.265625 323.851562 242.265625 324.507812 Z M 242.265625 324.507812 " fill-opacity="1" fill-rule="nonzero"/><path fill="#ffffff" d="M 75 294.75 L 75 305.136719 L 87.167969 305.136719 L 87.167969 344.71875 L 99.339844 344.71875 L 99.339844 305.417969 L 109.246094 305.417969 L 112.640625 294.75 Z M 174.621094 294.75 L 174.621094 305.136719 L 186.789062 305.136719 L 186.789062 344.71875 L 198.964844 344.71875 L 198.964844 305.417969 L 208.867188 305.417969 L 212.261719 294.75 Z M 114.90625 300.644531 C 114.90625 297.390625 117.5625 294.75 120.847656 294.75 C 124.132812 294.75 126.789062 297.390625 126.789062 300.644531 C 126.789062 303.898438 124.132812 306.539062 120.847656 306.539062 C 117.5625 306.539062 114.90625 303.898438 114.90625 300.644531 Z M 114.90625 310.753906 L 126.789062 310.753906 L 126.789062 344.71875 L 114.90625 344.71875 Z M 131.886719 294.75 L 131.886719 344.71875 L 143.773438 344.71875 L 143.773438 331.808594 L 147.453125 328.433594 L 159.054688 345 L 171.789062 345 L 155.089844 320.859375 L 170.089844 306.257812 L 155.65625 306.257812 L 143.773438 318.046875 L 143.773438 294.75 Z M 260.089844 294.75 L 260.089844 344.71875 L 271.980469 344.71875 L 271.980469 331.808594 L 275.65625 328.433594 L 287.261719 345 L 300 345 L 283.300781 320.859375 L 298.300781 306.257812 L 283.867188 306.257812 L 271.980469 318.046875 L 271.980469 294.75 Z M 260.089844 294.75 " fill-opacity="1" fill-rule="evenodd"/><path fill="#ee1d52" d="M 241.75 121.777344 C 258.167969 133.507812 278.277344 140.410156 300 140.410156 L 300 98.632812 C 295.875 98.632812 291.796875 98.207031 287.765625 97.351562 L 287.765625 130.238281 C 266.046875 130.238281 245.9375 123.335938 229.519531 111.609375 L 229.519531 196.859375 C 229.519531 239.507812 194.929688 274.078125 152.261719 274.078125 C 136.339844 274.078125 121.542969 269.269531 109.25 261.019531 C 123.28125 275.355469 142.84375 284.25 164.488281 284.25 C 207.160156 284.25 241.753906 249.679688 241.753906 207.03125 L 241.753906 121.777344 Z M 256.839844 79.632812 C 248.449219 70.472656 242.941406 58.632812 241.75 45.542969 L 241.75 40.171875 L 230.160156 40.171875 C 233.074219 56.804688 243.027344 71.015625 256.839844 79.632812 Z M 136.238281 228.292969 C 133.894531 225.222656 132.105469 221.855469 130.871094 218.195312 C 129.636719 214.535156 129.023438 210.773438 129.027344 206.910156 C 129.027344 187.402344 144.851562 171.589844 164.371094 171.589844 C 168.027344 171.585938 171.601562 172.136719 175.089844 173.242188 L 175.089844 130.53125 C 171.03125 129.976562 166.957031 129.742188 162.863281 129.828125 L 162.863281 163.074219 C 159.371094 161.96875 155.796875 161.414062 152.136719 161.417969 C 132.617188 161.417969 116.796875 177.234375 116.796875 196.738281 C 116.796875 210.53125 124.707031 222.476562 136.238281 228.292969 Z M 136.238281 228.292969 " fill-opacity="1" fill-rule="evenodd"/><path fill="#ffffff" d="M 229.519531 111.609375 C 245.9375 123.335938 266.046875 130.238281 287.765625 130.238281 L 287.765625 97.351562 C 275.644531 94.773438 264.910156 88.441406 256.839844 79.632812 C 243.027344 71.015625 233.074219 56.804688 230.160156 40.171875 L 199.710938 40.171875 L 199.710938 207.027344 C 199.640625 226.480469 183.847656 242.230469 164.367188 242.230469 C 152.890625 242.230469 142.695312 236.761719 136.234375 228.292969 C 124.703125 222.476562 116.796875 210.53125 116.796875 196.738281 C 116.796875 177.234375 132.617188 161.417969 152.136719 161.417969 C 155.875 161.417969 159.480469 162 162.859375 163.074219 L 162.859375 129.828125 C 120.945312 130.695312 87.230469 164.929688 87.230469 207.03125 C 87.230469 228.046875 95.625 247.097656 109.25 261.019531 C 121.542969 269.269531 136.339844 274.078125 152.261719 274.078125 C 194.929688 274.078125 229.519531 239.507812 229.519531 196.863281 Z M 229.519531 111.609375 " fill-opacity="1" fill-rule="evenodd"/><path fill="#69c9d0" d="M 287.765625 97.351562 L 287.765625 88.460938 C 282.300781 88.46875 276.9375 87.722656 271.683594 86.222656 C 266.425781 84.722656 261.476562 82.523438 256.839844 79.628906 C 258.878906 81.863281 261.082031 83.925781 263.441406 85.816406 C 265.800781 87.707031 268.292969 89.402344 270.917969 90.90625 C 273.542969 92.410156 276.265625 93.703125 279.09375 94.785156 C 281.917969 95.863281 284.808594 96.722656 287.765625 97.351562 Z M 230.160156 40.171875 C 229.878906 38.578125 229.667969 36.980469 229.519531 35.371094 L 229.519531 30 L 187.476562 30 L 187.476562 196.859375 C 187.410156 216.308594 171.613281 232.058594 152.136719 232.058594 C 146.417969 232.058594 141.019531 230.703125 136.234375 228.292969 C 142.695312 236.761719 152.890625 242.230469 164.367188 242.230469 C 183.84375 242.230469 199.640625 226.480469 199.710938 207.027344 L 199.710938 40.171875 Z M 162.863281 129.828125 L 162.863281 120.363281 C 159.34375 119.882812 155.8125 119.644531 152.261719 119.644531 C 109.589844 119.644531 75 154.214844 75 196.859375 C 75 223.597656 88.59375 247.15625 109.253906 261.019531 C 95.628906 247.097656 87.234375 228.046875 87.234375 207.027344 C 87.234375 164.929688 120.945312 130.695312 162.863281 129.828125 Z M 162.863281 129.828125 " fill-opacity="1" fill-rule="evenodd"/><path fill="#ffffff" d="M 232.355469 345 C 243.765625 345 253.019531 335.824219 253.019531 324.507812 C 253.019531 313.191406 243.765625 304.011719 232.355469 304.011719 L 232.074219 304.011719 C 220.664062 304.011719 211.414062 313.191406 211.414062 324.507812 C 211.414062 335.824219 220.664062 345 232.074219 345 Z M 222.167969 324.507812 C 222.167969 319.003906 226.667969 314.542969 232.21875 314.542969 C 237.761719 314.542969 242.261719 319.003906 242.261719 324.507812 C 242.261719 330.011719 237.761719 334.472656 232.21875 334.472656 C 226.667969 334.472656 222.167969 330.011719 222.167969 324.507812 Z M 222.167969 324.507812 " fill-opacity="1" fill-rule="evenodd"/></svg>